<?xml version="1.0" ?><!DOCTYPE svg  PUBLIC '-//W3C//DTD SVG 1.1//EN'  'http://www.w3.org/Graphics/SVG/1.1/DTD/svg11.dtd'><svg enable-background="new 0 0 24 24" height="24px" id="Layer_1" version="1.1" viewBox="0 0 24 24" width="24px" xml:space="preserve" xmlns="http://www.w3.org/2000/svg" xmlns:xlink="http://www.w3.org/1999/xlink"><g><path d="M22.7,3H21V1.1C21,0.5,20.4,0,19.7,0H1C0.4,0,0,0.5,0,1.1v12.8C0,14.5,0.4,15,1,15l2,0v1.9C3,17.5,3.4,18,4,18l14,0l6,6   V4.1C24,3.5,23.4,3,22.7,3z M3,4.1V13H2V2h17v1H4C3.4,3,3,3.5,3,4.1z M22,19.2L18.8,16H5V5h17V19.2z"/><rect height="1" width="11" x="8" y="11"/><rect height="1" width="11" x="8" y="9"/></g></svg>